<?xml version="1.0" encoding="utf-8"?>
<!-- Generator: Adobe Illustrator 16.0.0, SVG Export Plug-In . SVG Version: 6.00 Build 0)  -->
<!DOCTYPE svg PUBLIC "-//W3C//DTD SVG 1.1//EN" "http://www.w3.org/Graphics/SVG/1.1/DTD/svg11.dtd">
<svg version="1.1" id="Layer_1" xmlns="http://www.w3.org/2000/svg" xmlns:xlink="http://www.w3.org/1999/xlink" x="0px" y="0px"
	 width="280px" height="280px" viewBox="0 0 280 280" enable-background="new 0 0 280 280" xml:space="preserve">
<g>
	<g>
		<path fill="#111111" d="M140.004,55.932c-0.58,0-1.118-0.306-1.417-0.805l-12.213-20.443c-0.312-0.521-0.312-1.172,0-1.694
			l12.213-20.446c0.297-0.5,0.837-0.806,1.417-0.806l0,0c0.582,0,1.12,0.306,1.417,0.806l12.206,20.446
			c0.311,0.521,0.311,1.172,0,1.693l-12.206,20.443C141.124,55.625,140.586,55.932,140.004,55.932z"/>
		<path fill="#111111" d="M140.004,13.391l12.205,20.446l-12.205,20.443l-12.212-20.444L140.004,13.391 M140.004,10.087
			c-1.163,0-2.24,0.611-2.835,1.61l-12.214,20.446c-0.623,1.043-0.623,2.345,0,3.389l12.214,20.442
			c0.595,0.998,1.672,1.61,2.835,1.61l0,0c1.164,0,2.24-0.611,2.836-1.61l12.205-20.442c0.622-1.043,0.622-2.344,0-3.387
			L142.84,11.699C142.245,10.7,141.168,10.087,140.004,10.087L140.004,10.087z"/>
	</g>
	<g>
		<path fill="#111111" d="M140.005,268.26c-0.579,0-1.118-0.31-1.417-0.808l-12.214-20.435c-0.312-0.521-0.312-1.174,0-1.695
			l12.214-20.463c0.297-0.501,0.835-0.805,1.417-0.805l0,0c0.582,0,1.12,0.304,1.418,0.806l12.204,20.463
			c0.311,0.521,0.311,1.175,0,1.694l-12.204,20.435C141.125,267.953,140.587,268.26,140.005,268.26z"/>
		<g>
			<path fill="#111111" d="M140.005,225.711l12.204,20.463l-12.204,20.437l-12.213-20.437L140.005,225.711 M140.005,222.406
				c-1.163,0-2.241,0.612-2.835,1.611l-12.215,20.462c-0.623,1.043-0.623,2.344,0,3.39l12.215,20.435
				c0.596,0.997,1.672,1.608,2.835,1.608l0,0c1.164,0,2.24-0.611,2.836-1.608l12.204-20.435c0.622-1.046,0.622-2.347,0.001-3.388
				l-12.203-20.463C142.246,223.019,141.171,222.406,140.005,222.406L140.005,222.406L140.005,222.406z"/>
		</g>
	</g>
	<g>
		
			<polyline fill="none" stroke="#C9B785" stroke-width="17.8288" stroke-linecap="round" stroke-linejoin="round" stroke-miterlimit="10" points="
			182.057,104.851 97.938,240.248 13.712,104.851 		"/>
		
			<polyline fill="none" stroke="#C9B785" stroke-width="17.8288" stroke-linecap="round" stroke-linejoin="round" stroke-miterlimit="10" points="
			266.288,104.851 182.057,240.248 97.938,104.851 		"/>
	</g>
	<g>
		
			<line fill="none" stroke="#C9B785" stroke-width="17.8288" stroke-linecap="round" stroke-linejoin="round" stroke-miterlimit="10" x1="162.568" y1="68.405" x2="78.372" y2="203.78"/>
		
			<line fill="none" stroke="#C9B785" stroke-width="17.8288" stroke-linecap="round" stroke-linejoin="round" stroke-miterlimit="10" x1="201.627" y1="203.78" x2="117.432" y2="68.405"/>
	</g>
</g>
</svg>
