<?xml version="1.0" encoding="utf-8"?>
<!-- Generator: Adobe Illustrator 16.0.0, SVG Export Plug-In . SVG Version: 6.00 Build 0)  -->
<!DOCTYPE svg PUBLIC "-//W3C//DTD SVG 1.1//EN" "http://www.w3.org/Graphics/SVG/1.1/DTD/svg11.dtd">
<svg version="1.1" id="Layer_1" xmlns="http://www.w3.org/2000/svg" xmlns:xlink="http://www.w3.org/1999/xlink" x="0px" y="0px"
	 width="280px" height="280px" viewBox="0 0 280 280" enable-background="new 0 0 280 280" xml:space="preserve">
<g>
	<g>
		<path fill="#C9B785" d="M141.002,55.908c-0.58,0-1.118-0.306-1.417-0.805L127.372,34.66c-0.312-0.521-0.312-1.172,0-1.694
			l12.213-20.446c0.297-0.5,0.837-0.806,1.417-0.806l0,0c0.582,0,1.12,0.306,1.417,0.806l12.206,20.446
			c0.311,0.521,0.311,1.172,0,1.693l-12.206,20.443C142.122,55.602,141.584,55.908,141.002,55.908z"/>
		<path fill="#C9B785" d="M141.002,13.367l12.205,20.446l-12.205,20.443L128.79,33.812L141.002,13.367 M141.002,10.064
			c-1.163,0-2.24,0.611-2.835,1.61L125.953,32.12c-0.623,1.043-0.623,2.345,0,3.389l12.214,20.442
			c0.595,0.998,1.672,1.61,2.835,1.61l0,0c1.164,0,2.24-0.611,2.836-1.61l12.205-20.442c0.622-1.043,0.622-2.344,0-3.387
			l-12.205-20.446C143.243,10.677,142.166,10.064,141.002,10.064L141.002,10.064z"/>
	</g>
	<g>
		<path fill="#C9B785" d="M141.003,268.236c-0.579,0-1.118-0.31-1.417-0.808l-12.214-20.435c-0.312-0.521-0.312-1.174,0-1.695
			l12.214-20.463c0.297-0.501,0.835-0.805,1.417-0.805l0,0c0.582,0,1.12,0.304,1.418,0.806l12.204,20.463
			c0.311,0.521,0.311,1.175,0,1.694l-12.204,20.435C142.123,267.93,141.585,268.236,141.003,268.236z"/>
		<g>
			<path fill="#C9B785" d="M141.003,225.688l12.204,20.463l-12.204,20.437L128.79,246.15L141.003,225.688 M141.003,222.383
				c-1.163,0-2.241,0.612-2.835,1.611l-12.215,20.462c-0.623,1.043-0.623,2.344,0,3.39l12.215,20.435
				c0.596,0.997,1.672,1.608,2.835,1.608l0,0c1.164,0,2.24-0.611,2.836-1.608l12.204-20.435c0.622-1.046,0.622-2.347,0.001-3.388
				l-12.203-20.463C143.244,222.995,142.169,222.383,141.003,222.383L141.003,222.383L141.003,222.383z"/>
		</g>
	</g>
	<g>
		
			<polyline fill="none" stroke="#F8F8F8" stroke-width="17.8288" stroke-linecap="round" stroke-linejoin="round" stroke-miterlimit="10" points="
			183.055,104.827 98.935,240.225 14.71,104.827 		"/>
		
			<polyline fill="none" stroke="#F8F8F8" stroke-width="17.8288" stroke-linecap="round" stroke-linejoin="round" stroke-miterlimit="10" points="
			267.286,104.827 183.055,240.225 98.935,104.827 		"/>
	</g>
	<g>
		
			<line fill="none" stroke="#F8F8F8" stroke-width="17.8288" stroke-linecap="round" stroke-linejoin="round" stroke-miterlimit="10" x1="163.566" y1="68.382" x2="79.37" y2="203.757"/>
		
			<line fill="none" stroke="#F8F8F8" stroke-width="17.8288" stroke-linecap="round" stroke-linejoin="round" stroke-miterlimit="10" x1="202.625" y1="203.757" x2="118.429" y2="68.382"/>
	</g>
</g>
</svg>
